# Blender 4.0.2
# www.blender.org
o Cube
v -1.000000 0.500000 0.250000
v -1.000000 0.500000 0.250000
v -1.000000 0.500000 0.250000
v -1.000000 0.500000 -0.250000
v -0.500000 0.000000 0.250000
v -0.500000 0.500000 0.250000
v -0.500000 -0.000000 -0.250000
v -0.500000 0.500000 -0.250000
vn -0.0000 -0.0000 1.0000
vn -0.7071 -0.7071 -0.0000
vn 1.0000 -0.0000 -0.0000
vn -0.0000 1.0000 -0.0000
vn -0.0000 -0.0000 -0.0000
vn -0.0000 -0.0000 -1.0000
s 0
f 2//1 3//1 1//1
f 4//2 7//2 3//2
f 8//3 5//3 7//3
f 6//1 1//1 5//1
f 7//1 1//1 3//1
f 4//4 6//4 8//4
f 2//5 4//5 3//5
f 4//6 8//6 7//6
f 8//3 6//3 5//3
f 6//1 2//1 1//1
f 7//2 5//2 1//2
f 4//4 2//4 6//4
o Cube.001
v -0.500000 0.500000 -0.250000
v -0.500000 0.500000 -0.250000
v -0.500000 0.500000 -0.250000
v -0.500000 0.500000 0.250000
v -0.000000 -0.000000 -0.250000
v -0.499999 -0.000000 -0.250000
v 0.000000 0.000000 0.250000
v -0.499999 0.000000 0.250000
vn -0.0000 -0.0000 -1.0000
vn 0.7071 0.7071 -0.0000
vn -0.0000 -1.0000 -0.0000
vn -1.0000 -0.0000 -0.0000
vn -0.0000 -0.0000 -0.0000
vn -0.0000 -0.0000 1.0000
s 0
f 10//7 11//7 9//7
f 12//8 15//8 11//8
f 16//9 13//9 15//9
f 14//7 9//7 13//7
f 15//7 9//7 11//7
f 12//10 14//10 16//10
f 10//11 12//11 11//11
f 12//12 16//12 15//12
f 16//9 14//9 13//9
f 14//7 10//7 9//7
f 15//8 13//8 9//8
f 12//10 10//10 14//10
