# Blender 4.0.2
# www.blender.org
mtllib parallelepiped.mtl
o Cube
v -0.500000 0.000000 0.250000
v -0.500000 0.500000 0.250000
v -0.500000 -0.000000 -0.250000
v -0.500000 0.500000 -0.250000
v 0.000000 0.000000 0.250000
v -0.500000 0.500000 0.250000
v 0.000000 -0.000000 -0.250000
v -0.500000 0.500000 -0.250000
vn -1.0000 -0.0000 -0.0000
vn -0.0000 -0.0000 -1.0000
vn 0.7071 0.7071 -0.0000
vn -0.0000 -0.0000 1.0000
vn -0.0000 -1.0000 -0.0000
vn -0.0000 -0.0000 -0.0000
vt 0.375000 0.000000
vt 0.625000 0.000000
vt 0.625000 0.250000
vt 0.375000 0.250000
vt 0.750000 0.375000
vt 0.375000 0.500000
vt 0.750000 0.875000
vt 0.375000 0.750000
vt 0.625000 1.000000
vt 0.375000 1.000000
vt 0.125000 0.500000
vt 0.125000 0.750000
vt 0.875000 0.500000
vt 0.875000 0.750000
s 0
f 1/1/1 2/2/1 4/3/1 3/4/1
f 3/4/2 4/3/2 8/5/2 7/6/2
f 7/6/3 8/5/3 6/7/3 5/8/3
f 5/8/4 6/7/4 2/9/4 1/10/4
f 3/11/5 7/6/5 5/8/5 1/12/5
f 8/5/6 4/13/6 2/14/6 6/7/6
o Cube.001
v -1.000000 0.500000 0.250000
v -1.000000 0.500000 0.250000
v -1.000000 0.500000 -0.250000
v -1.000000 0.500000 -0.250000
v -0.500000 0.000000 0.250000
v -0.500000 0.500000 0.250000
v -0.500000 -0.000000 -0.250000
v -0.500000 0.500000 -0.250000
vn -0.0000 -0.0000 -0.0000
vn -0.0000 -0.0000 -1.0000
vn 1.0000 -0.0000 -0.0000
vn -0.0000 -0.0000 1.0000
vn -0.7071 -0.7071 -0.0000
vn -0.0000 1.0000 -0.0000
vt 0.625000 0.000000
vt 0.625000 0.250000
vt 0.625000 0.500000
vt 0.375000 0.500000
vt 0.625000 0.750000
vt 0.375000 0.750000
vt 0.625000 1.000000
vt 0.125000 0.500000
vt 0.125000 0.750000
vt 0.875000 0.500000
vt 0.875000 0.750000
s 0
f 9/15/7 10/15/7 12/16/7 11/16/7
f 11/16/8 12/16/8 16/17/8 15/18/8
f 15/18/9 16/17/9 14/19/9 13/20/9
f 13/20/10 14/19/10 10/21/10 9/21/10
f 11/22/11 15/18/11 13/20/11 9/23/11
f 16/17/12 12/24/12 10/25/12 14/19/12
